範例影音
=======



## 頁籤


* [No.1 sample_3s.mp4 1920x1080 h264 AAC](#1)



<a id="1"></a>
## sample_3s.mp4 1920x1080 h264 AAC


<video src="/mmrepo/sampleVideo/sample_3s.mp4" width="100%" controls></video>

```
Metadata:
  major_brand     : isom
  minor_version   : 512
  compatible_brands: isomiso2avc1mp41
  title           : #Pokemon20: A new world record for the Pokémon TCG!
  encoder         : Lavf57.72.100
  comment         : Video of https://www.youtube.com/watch?v=ba_EkwkngGU recorded by Peggo.tv on 2017-10-03.
Duration: 00:00:03.00, start: 0.000000, bitrate: 3884 kb/s
  Stream #0:0(und): Video: h264 (High) (avc1 / 0x31637661), yuv420p, 1920x1080 [SAR 1:1 DAR 16:9], 3745 kb/s, 25 fps, 25 tbr, 12800 tbn, 50 tbc (default)
  Metadata:
    handler_name    : VideoHandler
  Stream #0:1(und): Audio: aac (LC) (mp4a / 0x6134706D), 44100 Hz, stereo, fltp, 128 kb/s (default)
  Metadata:
    handler_name    : SoundHandler
```

來源：

  * [#Pokemon20: A new world record for the Pokémon TCG! - YouTube](https://youtu.be/ba_EkwkngGU)
  * [皮卡丘之歌之皮卡四重奏 - YouTube](https://youtu.be/l8UxQ0DC2gs)

